<svg xmlns="http://www.w3.org/2000/svg" xmlns:xlink="http://www.w3.org/1999/xlink" width="500" zoomAndPan="magnify" viewBox="0 0 375 374.999991" height="500" preserveAspectRatio="xMidYMid meet" version="1.0"><defs><g/><clipPath id="6c64a96b14"><path d="M 60 61.28125 L 315.21875 61.28125 L 315.21875 314 L 60 314 Z M 60 61.28125 " clip-rule="nonzero"/></clipPath><clipPath id="6764ccb012"><path d="M 281.304688 280.75 L 311.304688 280.75 L 311.304688 310.75 L 281.304688 310.75 Z M 281.304688 280.75 " clip-rule="nonzero"/></clipPath></defs><g clip-path="url(#6c64a96b14)"><path fill="#25d366" d="M 189.246094 72.417969 C 221.878906 73.238281 249.027344 84.484375 270.695312 106.152344 C 292.363281 127.820312 303.609375 154.96875 304.429688 187.601562 L 303.378906 203.230469 C 298.394531 234.71875 283.847656 259.945312 259.632812 278.785156 C 239.1875 294.691406 215.617188 302.582031 189.023438 302.582031 C 184 302.582031 178.835938 302.507812 173.617188 301.734375 C 152.507812 298.601562 134.285156 290.761719 118.855469 278.824219 L 118.855469 278.820312 L 118.855469 278.824219 L 118.855469 278.820312 L 118.855469 278.824219 L 118.855469 278.820312 L 118.855469 278.824219 C 102.996094 282.03125 87.136719 285.242188 71.277344 288.453125 L 83.199219 263.839844 L 90.996094 247.75 C 88.011719 242.878906 85.382812 237.773438 83.113281 232.433594 L 78.179688 218.222656 C 75.464844 208.441406 73.867188 198.230469 74.0625 187.601562 C 74.660156 154.964844 86.132812 127.820312 107.800781 106.152344 C 129.46875 84.484375 156.617188 73.238281 189.246094 72.417969 Z M 189.246094 61.332031 C 189.136719 61.332031 189.027344 61.335938 188.917969 61.335938 C 153.671875 62.238281 123.769531 74.507812 99.960938 98.316406 C 76.183594 122.09375 63.628906 152.011719 62.980469 187.398438 C 62.765625 199.28125 64.554688 210.566406 67.496094 221.183594 C 67.558594 221.410156 67.628906 221.636719 67.707031 221.859375 L 72.644531 236.070312 C 72.726562 236.308594 72.816406 236.539062 72.914062 236.769531 C 74.582031 240.695312 76.429688 244.507812 78.457031 248.210938 L 73.226562 259.007812 L 61.300781 283.621094 C 59.464844 287.414062 59.9375 291.917969 62.519531 295.246094 C 64.640625 297.984375 67.890625 299.539062 71.273438 299.539062 C 72.003906 299.539062 72.742188 299.464844 73.476562 299.316406 L 116.222656 290.664062 C 132.285156 302.070312 150.90625 309.570312 171.992188 312.695312 C 178.085938 313.601562 183.960938 313.667969 189.023438 313.667969 C 217.988281 313.667969 243.972656 305.011719 266.4375 287.53125 C 292.984375 266.878906 308.925781 239.089844 314.328125 204.960938 C 314.378906 204.636719 314.417969 204.304688 314.4375 203.972656 L 315.488281 188.34375 C 315.511719 188.003906 315.519531 187.660156 315.511719 187.320312 C 314.621094 152.050781 302.347656 122.132812 278.53125 98.316406 C 254.714844 74.5 224.796875 62.226562 189.527344 61.335938 C 189.433594 61.335938 189.339844 61.332031 189.246094 61.332031 Z M 189.246094 61.332031 " fill-opacity="1" fill-rule="nonzero"/></g><g clip-path="url(#6764ccb012)"><path fill="#25d366" d="M 311.058594 295.625 C 311.058594 296.601562 310.964844 297.570312 310.773438 298.527344 C 310.582031 299.484375 310.300781 300.414062 309.925781 301.316406 C 309.554688 302.21875 309.09375 303.078125 308.554688 303.890625 C 308.011719 304.703125 307.394531 305.453125 306.703125 306.144531 C 306.011719 306.835938 305.261719 307.453125 304.449219 307.996094 C 303.636719 308.539062 302.777344 308.996094 301.875 309.371094 C 300.972656 309.742188 300.042969 310.023438 299.085938 310.214844 C 298.128906 310.40625 297.160156 310.5 296.183594 310.5 C 295.207031 310.5 294.238281 310.40625 293.28125 310.214844 C 292.324219 310.023438 291.394531 309.742188 290.488281 309.371094 C 289.585938 308.996094 288.730469 308.539062 287.917969 307.996094 C 287.105469 307.453125 286.355469 306.835938 285.664062 306.144531 C 284.972656 305.453125 284.355469 304.703125 283.8125 303.890625 C 283.269531 303.078125 282.8125 302.21875 282.4375 301.316406 C 282.066406 300.414062 281.78125 299.484375 281.59375 298.527344 C 281.402344 297.570312 281.304688 296.601562 281.304688 295.625 C 281.304688 294.648438 281.402344 293.679688 281.59375 292.722656 C 281.78125 291.765625 282.066406 290.835938 282.4375 289.933594 C 282.8125 289.03125 283.269531 288.171875 283.8125 287.359375 C 284.355469 286.546875 284.972656 285.796875 285.664062 285.105469 C 286.355469 284.414062 287.105469 283.796875 287.917969 283.253906 C 288.730469 282.710938 289.585938 282.253906 290.488281 281.878906 C 291.394531 281.507812 292.324219 281.226562 293.28125 281.035156 C 294.238281 280.84375 295.207031 280.75 296.183594 280.75 C 297.160156 280.75 298.128906 280.84375 299.085938 281.035156 C 300.042969 281.226562 300.972656 281.507812 301.875 281.878906 C 302.777344 282.253906 303.636719 282.710938 304.449219 283.253906 C 305.261719 283.796875 306.011719 284.414062 306.703125 285.105469 C 307.394531 285.796875 308.011719 286.546875 308.554688 287.359375 C 309.09375 288.171875 309.554688 289.03125 309.925781 289.933594 C 310.300781 290.835938 310.582031 291.765625 310.773438 292.722656 C 310.964844 293.679688 311.058594 294.648438 311.058594 295.625 Z M 311.058594 295.625 " fill-opacity="1" fill-rule="nonzero"/></g><g fill="#25d366" fill-opacity="1"><g transform="translate(110.636716, 260.999981)"><g><path d="M 86.515625 4.484375 C 75.503906 4.484375 65.285156 2.941406 55.859375 -0.140625 C 46.429688 -3.222656 38.21875 -7.84375 31.21875 -14 C 24.21875 -20.15625 18.710938 -27.898438 14.703125 -37.234375 C 10.691406 -46.566406 8.6875 -57.488281 8.6875 -70 C 8.6875 -82.320312 10.691406 -92.914062 14.703125 -101.78125 C 18.710938 -110.644531 23.984375 -117.921875 30.515625 -123.609375 C 37.046875 -129.304688 44.507812 -133.507812 52.90625 -136.21875 C 61.3125 -138.925781 69.90625 -140.28125 78.6875 -140.28125 C 88.570312 -140.28125 97.570312 -138.785156 105.6875 -135.796875 C 113.8125 -132.804688 120.8125 -128.695312 126.6875 -123.46875 C 132.570312 -118.25 137.144531 -112 140.40625 -104.71875 C 143.675781 -97.4375 145.3125 -89.503906 145.3125 -80.921875 C 145.3125 -74.578125 143.539062 -69.722656 140 -66.359375 C 136.457031 -62.992188 131.507812 -60.847656 125.15625 -59.921875 L 56 -49.5625 C 58.050781 -43.394531 62.25 -38.769531 68.59375 -35.6875 C 74.945312 -32.613281 82.226562 -31.078125 90.4375 -31.078125 C 98.09375 -31.078125 105.328125 -32.054688 112.140625 -34.015625 C 118.953125 -35.972656 124.503906 -38.257812 128.796875 -40.875 C 131.785156 -39.007812 134.304688 -36.394531 136.359375 -33.03125 C 138.410156 -29.675781 139.4375 -26.132812 139.4375 -22.40625 C 139.4375 -14 135.519531 -7.742188 127.6875 -3.640625 C 121.707031 -0.460938 114.984375 1.679688 107.515625 2.796875 C 100.046875 3.921875 93.046875 4.484375 86.515625 4.484375 Z M 78.6875 -105.5625 C 74.195312 -105.5625 70.316406 -104.8125 67.046875 -103.3125 C 63.785156 -101.820312 61.128906 -99.910156 59.078125 -97.578125 C 57.023438 -95.242188 55.484375 -92.628906 54.453125 -89.734375 C 53.429688 -86.847656 52.828125 -83.910156 52.640625 -80.921875 L 100.515625 -88.765625 C 99.960938 -92.492188 97.910156 -96.222656 94.359375 -99.953125 C 90.816406 -103.691406 85.59375 -105.5625 78.6875 -105.5625 Z M 78.6875 -105.5625 "/></g></g></g></svg>